<?xml version="1.0"?>
<svg xmlns="http://www.w3.org/2000/svg" viewBox="0 0 32 32"><title/><g data-name="video player" id="video_player"><path d="M26.19,5H5.81A2.81,2.81,0,0,0,3,7.81V24.19A2.81,2.81,0,0,0,5.81,27H26.19A2.81,2.81,0,0,0,29,24.19V7.81A2.81,2.81,0,0,0,26.19,5ZM5.81,7H26.19a.81.81,0,0,1,.81.81V10H5V7.81A.81.81,0,0,1,5.81,7ZM26.19,25H5.81A.81.81,0,0,1,5,24.19V12H27V24.19A.81.81,0,0,1,26.19,25Z"/><path d="M20.45,18.11l-6-3A1,1,0,0,0,13,16v6a1,1,0,0,0,.47.85A1,1,0,0,0,14,23a1,1,0,0,0,.45-.11l6-3a1,1,0,0,0,0-1.78ZM15,20.38V17.62L17.76,19Z"/></g></svg>
